<?xml version="1.0" encoding="UTF-8" standalone="no"?>
<!-- Generator: Gravit.io -->
<svg xmlns="http://www.w3.org/2000/svg" xmlns:xlink="http://www.w3.org/1999/xlink" style="isolation:isolate" viewBox="0 0 192 192" width="192pt" height="192pt"><defs><clipPath id="_clipPath_nwKLl8pChmdgszNaWPxAzzwIKg02b3pu"><rect width="192" height="192"/></clipPath></defs><g clip-path="url(#_clipPath_nwKLl8pChmdgszNaWPxAzzwIKg02b3pu)"><mask id="_mask_x3SU8lewZXi06G7CbZBpOBcF7SoOA4m7"><circle vector-effect="non-scaling-stroke" cx="96" cy="96" r="77.5" fill="white" stroke="none"/></mask><circle vector-effect="non-scaling-stroke" cx="96" cy="96" r="77.5" fill="none"/><circle vector-effect="non-scaling-stroke" cx="96" cy="96" r="77.5" fill="none" mask="url(#_mask_x3SU8lewZXi06G7CbZBpOBcF7SoOA4m7)" stroke-width="24" stroke="rgb(0,0,0)" stroke-linejoin="miter" stroke-linecap="square" stroke-miterlimit="3"/><path d="M 96 83.94 L 96 83.94 C 102.656 83.94 108.06 89.344 108.06 96 L 108.06 96 C 108.06 102.656 102.656 108.06 96 108.06 L 96 108.06 C 89.344 108.06 83.94 102.656 83.94 96 L 83.94 96 C 83.94 89.344 89.344 83.94 96 83.94 Z" style="fill:none;stroke:#000000;stroke-width:24;stroke-linecap:square;stroke-miterlimit:2;"/><g><path d="M 92.5 164 L 99.5 164 C 104.743 164 109 168.257 109 173.5 L 109 173.5 C 109 178.743 104.743 183 99.5 183 L 92.5 183 C 87.257 183 83 178.743 83 173.5 L 83 173.5 C 83 168.257 87.257 164 92.5 164 Z" style="stroke:none;fill:#000000;stroke-miterlimit:10;"/><path d="M 99.5 28 L 92.5 28 C 87.257 28 83 23.743 83 18.5 L 83 18.5 C 83 13.257 87.257 9 92.5 9 L 99.5 9 C 104.743 9 109 13.257 109 18.5 L 109 18.5 C 109 23.743 104.743 28 99.5 28 Z" style="stroke:none;fill:#000000;stroke-miterlimit:10;"/><path d="M 164 99.5 L 164 92.5 C 164 87.257 168.257 83 173.5 83 L 173.5 83 C 178.743 83 183 87.257 183 92.5 L 183 99.5 C 183 104.743 178.743 109 173.5 109 L 173.5 109 C 168.257 109 164 104.743 164 99.5 Z" style="stroke:none;fill:#000000;stroke-miterlimit:10;"/><path d="M 28 92.5 L 28 99.5 C 28 104.743 23.743 109 18.5 109 L 18.5 109 C 13.257 109 9 104.743 9 99.5 L 9 92.5 C 9 87.257 13.257 83 18.5 83 L 18.5 83 C 23.743 83 28 87.257 28 92.5 Z" style="stroke:none;fill:#000000;stroke-miterlimit:10;"/></g><g><path d="M 153.986 145.399 L 157.702 149.118 C 160.486 151.903 160.486 156.426 157.702 159.211 L 157.702 159.211 C 154.918 161.996 150.398 161.996 147.614 159.211 L 143.898 155.492 C 141.114 152.707 141.114 148.184 143.898 145.399 L 143.898 145.399 C 146.682 142.614 151.202 142.614 153.986 145.399 Z" style="stroke:none;fill:#000000;stroke-miterlimit:10;"/><path d="M 47.92 144.08 L 47.92 144.08 C 50.8 146.959 50.8 151.634 47.92 154.514 L 44.914 157.52 C 42.034 160.4 37.359 160.4 34.48 157.52 L 34.48 157.52 C 31.6 154.641 31.6 149.966 34.48 147.086 L 37.486 144.08 C 40.366 141.2 45.041 141.2 47.92 144.08 Z" style="stroke:none;fill:#000000;stroke-miterlimit:10;"/><path d="M 38.028 44.852 L 34.309 41.136 C 31.524 38.352 31.524 33.832 34.309 31.048 L 34.309 31.048 C 37.094 28.264 41.617 28.264 44.402 31.048 L 48.121 34.764 C 50.906 37.548 50.906 42.068 48.121 44.852 L 48.121 44.852 C 45.336 47.636 40.813 47.636 38.028 44.852 Z" style="stroke:none;fill:#000000;stroke-miterlimit:10;"/><path d="M 144.098 46.172 L 144.098 46.172 C 141.221 43.294 141.221 38.621 144.098 35.743 L 147.103 32.738 C 149.981 29.861 154.654 29.861 157.532 32.738 L 157.532 32.738 C 160.409 35.616 160.409 40.289 157.532 43.167 L 154.527 46.172 C 151.649 49.049 146.976 49.049 144.098 46.172 Z" style="stroke:none;fill:#000000;stroke-miterlimit:10;"/></g></g></svg>