<?xml version="1.0" encoding="UTF-8" standalone="no"?>
<!-- Generator: Gravit.io -->
<svg xmlns="http://www.w3.org/2000/svg" xmlns:xlink="http://www.w3.org/1999/xlink" style="isolation:isolate" viewBox="0 0 250 250" width="250pt" height="250pt"><defs><clipPath id="_clipPath_ziY7rj1Dayxnjwa6FfSobZDPcmESRBYG"><rect width="250" height="250"/></clipPath></defs><g clip-path="url(#_clipPath_ziY7rj1Dayxnjwa6FfSobZDPcmESRBYG)"><path d=" M 55.6 239.9 C 53.5 239.9 51.8 238.2 51.8 236.1 L 51.8 13.8 C 51.8 11.7 53.5 10 55.6 10 C 57.7 10 59.4 11.7 59.4 13.8 L 59.4 236 C 59.4 238.2 57.7 239.9 55.6 239.9 Z " fill="rgb(0,0,0)"/><g><path d=" M 36.5 224.5 L 21 224.5 C 18.9 224.5 17.2 222.8 17.2 220.7 C 17.2 218.6 18.9 216.9 21 216.9 L 36.4 216.9 C 38.5 216.9 40.2 218.6 40.2 220.7 C 40.3 222.8 38.6 224.5 36.5 224.5 Z " fill="rgb(0,0,0)"/><path d=" M 36.5 205.4 L 21 205.4 C 18.9 205.4 17.2 203.7 17.2 201.6 C 17.2 199.5 18.9 197.8 21 197.8 L 36.4 197.8 C 38.5 197.8 40.2 199.5 40.2 201.6 C 40.3 203.7 38.6 205.4 36.5 205.4 Z " fill="rgb(0,0,0)"/><path d=" M 36.5 186.2 L 21 186.2 C 18.9 186.2 17.2 184.5 17.2 182.4 C 17.2 180.3 18.9 178.6 21 178.6 L 36.4 178.6 C 38.5 178.6 40.2 180.3 40.2 182.4 C 40.3 184.5 38.6 186.2 36.5 186.2 Z " fill="rgb(0,0,0)"/><path d=" M 36.5 167.1 L 21 167.1 C 18.9 167.1 17.2 165.4 17.2 163.3 C 17.2 161.2 18.9 159.5 21 159.5 L 36.4 159.5 C 38.5 159.5 40.2 161.2 40.2 163.3 C 40.3 165.4 38.6 167.1 36.5 167.1 Z " fill="rgb(0,0,0)"/><path d=" M 36.5 147.9 L 21 147.9 C 18.9 147.9 17.2 146.2 17.2 144.1 C 17.2 142 18.9 140.3 21 140.3 L 36.4 140.3 C 38.5 140.3 40.2 142 40.2 144.1 C 40.3 146.2 38.6 147.9 36.5 147.9 Z " fill="rgb(0,0,0)"/><path d=" M 36.5 128.8 L 21 128.8 C 18.9 128.8 17.2 127.1 17.2 125 C 17.2 122.9 18.9 121.2 21 121.2 L 36.4 121.2 C 38.5 121.2 40.2 122.9 40.2 125 C 40.3 127 38.6 128.8 36.5 128.8 Z " fill="rgb(0,0,0)"/><path d=" M 36.5 109.6 L 21 109.6 C 18.9 109.6 17.2 107.9 17.2 105.8 C 17.2 103.7 18.9 102 21 102 L 36.4 102 C 38.5 102 40.2 103.7 40.2 105.8 C 40.3 107.9 38.6 109.6 36.5 109.6 Z " fill="rgb(0,0,0)"/><path d=" M 36.5 90.5 L 21 90.5 C 18.9 90.5 17.2 88.8 17.2 86.7 C 17.2 84.6 18.9 82.9 21 82.9 L 36.4 82.9 C 38.5 82.9 40.2 84.6 40.2 86.7 C 40.3 88.7 38.6 90.5 36.5 90.5 Z " fill="rgb(0,0,0)"/><path d=" M 36.5 71.3 L 21 71.3 C 18.9 71.3 17.2 69.6 17.2 67.5 C 17.2 65.4 18.9 63.7 21 63.7 L 36.4 63.7 C 38.5 63.7 40.2 65.4 40.2 67.5 C 40.3 69.6 38.6 71.3 36.5 71.3 Z " fill="rgb(0,0,0)"/><path d=" M 36.5 52.1 L 21 52.1 C 18.9 52.1 17.2 50.4 17.2 48.3 C 17.2 46.2 18.9 44.5 21 44.5 L 36.4 44.5 C 38.5 44.5 40.2 46.2 40.2 48.3 C 40.3 50.4 38.6 52.1 36.5 52.1 Z " fill="rgb(0,0,0)"/><path d=" M 36.5 33 L 21 33 C 18.9 33 17.2 31.3 17.2 29.2 C 17.2 27.1 18.9 25.4 21 25.4 L 36.4 25.4 C 38.5 25.4 40.2 27.1 40.2 29.2 C 40.3 31.3 38.6 33 36.5 33 Z " fill="rgb(0,0,0)"/></g><mask id="_mask_rjUuzi9dCsJcXaIstxhOSwFjuJSL9ZHY"><path d=" M 212.7 2.3 L 44.1 2.3 C 37.8 2.3 32.6 7.5 32.6 13.8 L 32.6 236 C 32.6 242.3 37.8 247.5 44.1 247.5 L 212.7 247.5 C 219 247.5 224.2 242.3 224.2 236 L 224.2 13.8 C 224.2 7.5 219 2.3 212.7 2.3 Z " fill="white" stroke="none"/></mask><path d=" M 212.7 2.3 L 44.1 2.3 C 37.8 2.3 32.6 7.5 32.6 13.8 L 32.6 236 C 32.6 242.3 37.8 247.5 44.1 247.5 L 212.7 247.5 C 219 247.5 224.2 242.3 224.2 236 L 224.2 13.8 C 224.2 7.5 219 2.3 212.7 2.3 Z " fill="none"/><path d=" M 212.7 2.3 L 44.1 2.3 C 37.8 2.3 32.6 7.5 32.6 13.8 L 32.6 236 C 32.6 242.3 37.8 247.5 44.1 247.5 L 212.7 247.5 C 219 247.5 224.2 242.3 224.2 236 L 224.2 13.8 C 224.2 7.5 219 2.3 212.7 2.3 Z " fill="none" mask="url(#_mask_rjUuzi9dCsJcXaIstxhOSwFjuJSL9ZHY)" vector-effect="non-scaling-stroke" stroke-width="24" stroke="rgb(0,0,0)" stroke-linejoin="miter" stroke-linecap="butt" stroke-miterlimit="4"/><path d=" M 183.8 117.3 C 182.7 99.2 167.8 84.7 149.8 84.7 C 138.9 84.7 128.3 90.1 121.7 98.8 C 121.5 98.7 121.4 98.7 121.2 98.6 C 120.8 98.4 120.4 98.2 120 98.1 C 119.8 98 119.5 97.9 119.3 97.8 C 118.9 97.7 118.5 97.5 118.1 97.4 C 117.9 97.3 117.6 97.3 117.4 97.2 C 116.9 97.1 116.5 97 116 96.9 C 115.8 96.9 115.6 96.8 115.4 96.8 C 114.7 96.7 114.1 96.7 113.4 96.7 C 103.4 96.7 95.3 104.8 95.3 114.8 C 95.3 115.1 95.3 115.3 95.3 115.6 L 95.3 115.6 C 86.9 120.2 81.2 129.7 81.2 139.3 C 81.2 153.6 92.8 165.2 107.1 165.2 L 156.5 165.2 C 156.7 165.2 156.9 165.2 157.1 165.2 L 157.2 165.2 L 157.5 165.2 C 157.7 165.2 157.9 165.2 158.1 165.2 L 177.8 165.2 C 191.2 165.2 202 154.3 202 141 C 202 129.9 194.3 120 183.8 117.3 Z  M 177.7 161.2 L 158 161.2 C 157.9 161.2 157.8 161.2 157.7 161.2 L 157.2 161.2 L 156.8 161.2 C 156.7 161.2 156.6 161.2 156.4 161.2 L 107 161.2 C 95 161.2 85.2 151.4 85.2 139.4 C 85.2 131 90.6 122.4 98.2 118.8 L 99.3 118.3 L 99.3 117 C 99.3 116.7 99.3 116.5 99.3 116.2 L 99.3 115.9 L 99.3 115.5 C 99.3 115.3 99.3 115.2 99.3 115 C 99.3 107.2 105.6 100.9 113.4 100.9 C 114 100.9 114.6 101 115.2 101 C 115.4 101 115.5 101 115.7 101.1 C 116.2 101.2 116.8 101.3 117.3 101.5 C 117.4 101.5 117.4 101.5 117.5 101.6 C 118.1 101.8 118.6 102 119.2 102.2 C 119.3 102.3 119.5 102.3 119.6 102.4 C 120.1 102.6 120.6 102.9 121 103.2 C 124.9 105.7 127.5 110.1 127.5 115 C 127.5 116.1 128.4 117 129.5 117 C 130.6 117 131.5 116.1 131.5 115 C 131.5 109.5 129 104.5 125.1 101.2 C 130.9 93.6 140.4 88.9 149.8 88.9 C 165.4 88.9 178.4 101.3 179.7 116.9 C 177.6 116.8 174.6 116.7 171.5 117.1 C 170.4 117.3 169.6 118.3 169.8 119.4 C 170 120.4 170.8 121.1 171.8 121.1 C 171.9 121.1 172 121.1 172.1 121.1 C 176.6 120.4 181.3 121.1 181.5 121.1 C 190.9 122.9 197.9 131.5 197.9 141.2 C 197.9 152.1 188.9 161.2 177.7 161.2 Z " fill="rgb(0,0,0)" vector-effect="non-scaling-stroke" stroke-width="6" stroke="rgb(0,0,0)" stroke-linejoin="miter" stroke-linecap="butt" stroke-miterlimit="4"/></g></svg>