<?xml version="1.0" encoding="UTF-8" standalone="no"?>
<!-- Generator: Gravit.io -->
<svg xmlns="http://www.w3.org/2000/svg" xmlns:xlink="http://www.w3.org/1999/xlink" style="isolation:isolate" viewBox="0 0 226.733 226.733" width="226.733pt" height="226.733pt"><defs><clipPath id="_clipPath_18S3X5sSIlK9gQSjCyPIjyNqRWJIhjyQ"><rect width="226.733" height="226.733"/></clipPath></defs><g clip-path="url(#_clipPath_18S3X5sSIlK9gQSjCyPIjyNqRWJIhjyQ)"><g><path d=" M 170.718 101.897 C 138.319 82.656 84.877 80.887 53.948 90.274 C 48.981 91.782 43.728 88.977 42.224 84.012 C 40.718 79.041 43.519 73.793 48.49 72.283 C 83.994 61.506 143.015 63.587 180.314 85.728 C 184.781 88.38 186.246 94.15 183.599 98.61 C 180.949 103.077 175.174 104.55 170.718 101.897 L 170.718 101.897 Z  M 169.657 130.396 C 167.383 134.084 162.561 135.241 158.877 132.976 C 131.866 116.373 90.678 111.563 58.722 121.263 C 54.578 122.516 50.201 120.179 48.942 116.043 C 47.693 111.899 50.031 107.53 54.167 106.269 C 90.673 95.192 136.055 100.557 167.079 119.622 C 170.762 121.891 171.922 126.716 169.657 130.396 Z  M 157.358 157.765 C 155.552 160.727 151.695 161.655 148.744 159.85 C 125.141 145.424 95.433 142.167 60.446 150.158 C 57.074 150.931 53.714 148.818 52.945 145.447 C 52.173 142.077 54.278 138.716 57.657 137.947 C 95.944 129.194 128.787 132.961 155.279 149.15 C 158.233 150.954 159.163 154.812 157.358 157.765 Z " fill="rgb(27,23,22)"/></g><mask id="_mask_0SZZmaAauCrthEAkFWbwSmtSoIVWECk1"><circle vector-effect="non-scaling-stroke" cx="113.36668383249949" cy="113.36664616750046" r="111.6573105419005" fill="white" stroke="none"/></mask><circle vector-effect="non-scaling-stroke" cx="113.36668383249949" cy="113.36664616750046" r="111.6573105419005" fill="none"/><circle vector-effect="non-scaling-stroke" cx="113.36668383249949" cy="113.36664616750046" r="111.6573105419005" fill="none" mask="url(#_mask_0SZZmaAauCrthEAkFWbwSmtSoIVWECk1)" stroke-width="24" stroke="rgb(0,0,0)" stroke-linejoin="miter" stroke-linecap="square" stroke-miterlimit="3"/></g></svg>